<?xml version="1.0" encoding="UTF-8"?>
<svg width="752pt" height="752pt" version="1.1" viewBox="0 0 752 752" xmlns="http://www.w3.org/2000/svg">
 <path d="m376 481.67c-5.6914 0-11.148-2.2578-15.172-6.2852-4.0234-4.0234-6.2852-9.4805-6.2852-15.172v-168.42c-0.34766-5.8984 1.7539-11.684 5.8086-15.98 4.0547-4.3008 9.7031-6.7383 15.613-6.7383s11.559 2.4375 15.613 6.7383c4.0547 4.2969 6.1562 10.082 5.8086 15.98v168.42c0 5.6758-2.25 11.125-6.2578 15.148-4.0117 4.0195-9.4492 6.2891-15.129 6.3086zm56.016-28.043c-5.6914 0-11.148-2.2617-15.172-6.2852-4.0234-4.0234-6.2852-9.4844-6.2852-15.176v-112.33c-0.34766-5.8984 1.7539-11.68 5.8086-15.98 4.0547-4.3008 9.7031-6.7383 15.613-6.7383 5.9102 0 11.559 2.4375 15.613 6.7383s6.1562 10.082 5.8086 15.98v112.33c0 5.707-2.2695 11.176-6.3125 15.203-4.0391 4.0234-9.5156 6.2773-15.219 6.2578zm56.238-28.043v-0.003906c-5.6914 0-11.148-2.2578-15.172-6.2852-4.0273-4.0234-6.2852-9.4805-6.2852-15.172v-56.238c-0.34766-5.8984 1.7539-11.684 5.8086-15.98 4.0547-4.3008 9.7031-6.7383 15.613-6.7383s11.559 2.4375 15.613 6.7383c4.0547 4.2969 6.1562 10.082 5.8086 15.98v56.238c0 5.7031-2.2734 11.172-6.3125 15.199-4.0391 4.0273-9.5156 6.2773-15.223 6.2578zm-168.56 31.816c-5.6797-0.019532-11.121-2.2891-15.129-6.3125-4.0078-4.0195-6.2578-9.4688-6.2578-15.148v-119.13c-0.34766-5.9023 1.7539-11.684 5.8086-15.98 4.0547-4.3008 9.7031-6.7383 15.613-6.7383 5.9102 0 11.559 2.4375 15.613 6.7383 4.0547 4.2969 6.1562 10.078 5.8086 15.98v119.14-0.003906c0 5.6914-2.2617 11.152-6.2852 15.176-4.0234 4.0234-9.4805 6.2852-15.172 6.2852zm-56.09-31.82c-5.6914 0-11.152-2.2578-15.176-6.2852-4.0234-4.0234-6.2852-9.4805-6.2852-15.172v-56.238c-0.34766-5.8984 1.7539-11.684 5.8086-15.98 4.0547-4.3008 9.7031-6.7383 15.613-6.7383s11.559 2.4375 15.613 6.7383c4.0547 4.2969 6.1562 10.082 5.8086 15.98v56.238c0.019531 5.6836-2.2227 11.141-6.2383 15.168-4.0117 4.0273-9.4609 6.2891-15.145 6.2891zm-55.797 27.898c-5.6758 0-11.125-2.25-15.145-6.2578-4.0234-4.0117-6.293-9.4492-6.3125-15.129v-112.18c0.43359-7.3516 4.6055-13.973 11.059-17.531 6.4492-3.5547 14.277-3.5547 20.727 0 6.4492 3.5586 10.625 10.18 11.059 17.531v112.18c-0.019531 5.668-2.2773 11.094-6.2852 15.102-4.0078 4.0078-9.4336 6.2656-15.102 6.2852zm336.39 0c-5.6641-0.019531-11.094-2.2773-15.098-6.2852-4.0078-4.0078-6.2656-9.4336-6.2852-15.102v-112.18c0.42969-7.3516 4.6055-13.973 11.059-17.531 6.4492-3.5547 14.273-3.5547 20.727 0 6.4492 3.5586 10.625 10.18 11.059 17.531v112.18c-0.019531 5.6797-2.2891 11.117-6.3125 15.129-4.0234 4.0078-9.4688 6.2578-15.148 6.2578z"/>
</svg>
